<svg width="450" height="538" viewBox="0 0 450 538" fill="none" xmlns="http://www.w3.org/2000/svg">
<path d="M12.9995 139.089L56.7832 160.521M227.003 524.999V455.748L185.062 431.603L185.79 313.552V243.37L227.003 264.552M56.7832 160.521V243.37V348.958L12.9995 325.907M56.7832 160.521L123.707 123.437L80.7587 99.1656M147.395 209.109L195.448 180.569L224.185 195.377M147.395 209.109L99.4009 185.778M147.395 209.109V313.552M99.4009 185.778V286.072L147.395 313.552M99.4009 185.778L195.448 128.984M150.446 58.1066L191.197 80.4886L154.384 105.03L195.448 128.984M228.01 147.979L203.468 133.663L195.448 128.984M147.395 313.552V339.359V370.092M95.5763 444.946V339.359L147.395 370.092M147.395 370.092V473.742" stroke="#4DC48D" stroke-width="19.1976" stroke-linejoin="round"/>
<path d="M227.022 13L437.271 139.09M227.022 13L13.012 139.09V398.91L227.022 525M227.022 13V525M227.022 525L437.271 398.91V139.09M437.271 139.09L227.022 261.358" stroke="url(#paint0_linear_1736_4)" stroke-width="24.9569" stroke-linejoin="round"/>
<defs>
<linearGradient id="paint0_linear_1736_4" x1="202.745" y1="234.861" x2="290.025" y2="234.861" gradientUnits="userSpaceOnUse">
<stop stop-color="#4DC48D"/>
<stop offset="1" stop-color="#0084D7"/>
</linearGradient>
</defs>
</svg>
